<?xml version="1.0" ?><svg id="Layer_1" style="enable-background:new 0 0 128 128;" version="1.1" viewBox="0 0 128 128" xml:space="preserve" xmlns="http://www.w3.org/2000/svg" xmlns:xlink="http://www.w3.org/1999/xlink"><style type="text/css">
	.st0{fill:#60646B;}
</style><path class="st0" d="M118.7,112.9V42.1L80.1,31v81.9h-2.8V10H32.8v103h-2.6V70.7H6.1V113H6v5.1h116V113L118.7,112.9L118.7,112.9z   M101.6,47.4h11.1v12.4h-11.1V47.4z M101.6,63.1h11.1v12.4h-11.1V63.1z M101.6,80.1h11.1v12.4h-11.1V80.1z M101.6,97.1h11.1v12.4  h-11.1V97.1z M84.6,47.4h11.1v12.4H84.6V47.4z M84.6,63.1h11.1v12.4H84.6V63.1z M84.6,80.1h11.1v12.4H84.6V80.1z M84.6,97.1h11.1  v12.4H84.6V97.1z M19.7,74.6h7.2v7.5h-7.2V74.6z M19.7,89.1h7.2v7.5h-7.2V89.1z M19.7,103.3h7.2v7.5h-7.2V103.3z M9.4,74.8h7.2v7.5  H9.4V74.8z M9.4,89.2h7.2v7.5H9.4V89.2z M9.4,103.4h7.2v7.5H9.4V103.4z M59,18.1h11.1v11.1H59V18.1z M59,40.3h11.1v11.1H59V40.3z   M59,62.9h11.1V74H59V62.9z M39.9,18.1H51v11.1H39.9V18.1z M39.9,40.3H51v11.1H39.9V40.3z M39.9,62.9H51V74H39.9V62.9z M43.8,82.3  H66V113h-5.5V87.1H49.3v25.8h-5.6L43.8,82.3L43.8,82.3z"/></svg>